<svg xmlns="http://www.w3.org/2000/svg" xmlns:xlink="http://www.w3.org/1999/xlink" id="LAYOUT" x="0px" y="0px" viewBox="0 0 122.76 25.86" style="enable-background:new 0 0 122.76 25.86;" xml:space="preserve"><style type="text/css">	.st0{fill:#6CC5C3;}	.st1{fill:#FFFFFF;}</style><g>	<path class="st0" d="M8.38,2.64c-0.17,0-0.34,0-0.51,0.01C6.66,2.71,5.62,3.05,4.71,3.7C3.35,4.66,2.68,5.85,2.64,7.32  c-0.06,2.46,1.15,4.25,3.5,5.18l0.78-1.29l-0.05-0.03c-0.33-0.19-0.62-0.37-0.91-0.56c-1.28-0.84-1.8-2.14-1.51-3.77  C4.69,5.54,5.6,4.63,7.03,4.29c1.61-0.39,3.2-0.16,4.67,0.66c0.14,0.08,0.29,0.16,0.44,0.24l0.81-1.24  c-0.01-0.01-0.03-0.02-0.04-0.03C11.53,3.05,10.05,2.64,8.38,2.64z"></path>	<path class="st1" d="M2.33,21.43c2.07,1.76,4.54,2.24,7.32,1.42c2.09-0.62,4.17-2.72,3.77-5.87c-0.25-1.97-1.26-3.27-3.38-4.29  l-0.81,1.35c0.26,0.16,0.48,0.3,0.7,0.45c1.32,0.91,1.93,2.24,1.77,3.84c-0.17,1.58-1.15,2.71-2.77,3.19  c-0.54,0.16-1.08,0.24-1.62,0.24l0,0c-1.25,0-2.47-0.42-3.72-1.28c-0.1-0.07-0.19-0.14-0.29-0.21L2.33,21.43z"></path>	<path class="st0" d="M17.24,14.75c0.46,3.2,1.97,5.55,4.48,7c3.73,2.15,7.56,2.07,11.19-0.24c2.42-1.54,3.98-4.93,4.03-6.76h-1.66  c-0.36,1.86-1.18,3.43-2.42,4.67c-1.41,1.41-3.18,2.19-5.25,2.3c-0.19,0.01-0.39,0.02-0.58,0.02c0,0,0,0,0,0  c-1.69,0-3.12-0.42-4.36-1.28c-1.83-1.27-3.02-3.14-3.64-5.71H17.24z"></path>	<path class="st1" d="M17.29,11.33l1.54,0c0.05,0,0.1,0,0.15-0.01l0.01-0.04c0.05-0.28,0.1-0.55,0.17-0.81  c1.04-4.36,4.87-6.93,9.38-6.24c3.26,0.5,5.46,2.53,6.52,6.03c0.1,0.32,0.16,0.66,0.22,0.99c0,0.01,0,0.02,0.01,0.03H37  c-0.61-3.48-2.33-5.96-5.25-7.56c-1.29-0.7-2.85-1.08-4.53-1.08c-2.41,0-4.75,0.79-6.43,2.16C18.45,6.7,17.23,9.93,17.29,11.33z"></path>	<polygon class="st0" points="56.26,22.99 58.4,22.99 44.53,2.86 42.48,2.86  "></polygon>	<polygon class="st1" points="42.04,22.99 43.72,22.99 43.72,10.77 42.04,8.34  "></polygon>	<g>		<path class="st1" d="M58.74,2.87l-1.55,0v12.24l0.28,0.41c0.27,0.41,0.55,0.81,0.84,1.2c0.15,0.2,0.28,0.41,0.41,0.62   c0.03,0.04,0.06,0.09,0.08,0.13L58.74,2.87z"></path>	</g>	<path class="st0" d="M71.75,21.42c0.52,0.48,1.08,0.85,1.75,1.16C74.7,23.13,76,23.2,77,23.2l0.34,0c1.55-0.03,3.24-0.83,4.3-2.05  c0.69-0.8,1.46-2.17,1.2-4.17c-0.25-1.95-1.3-3.28-3.38-4.29l-0.81,1.35c0.26,0.16,0.49,0.3,0.71,0.45  c1.32,0.91,1.93,2.24,1.76,3.84c-0.17,1.58-1.16,2.71-2.78,3.19c-1.78,0.52-3.57,0.17-5.33-1.05c-0.09-0.06-0.19-0.13-0.28-0.2  L71.75,21.42z"></path>	<path class="st1" d="M77.77,2.63c-0.26,0-0.51,0.01-0.77,0.03c-1.6,0.11-3.21,0.98-4.11,2.22C72.07,6,71.84,7.39,72.21,8.91  c0.4,1.62,1.43,2.74,3.34,3.61l0.79-1.3l-0.07-0.04c-0.34-0.2-0.65-0.39-0.95-0.59c-1.23-0.84-1.74-2.13-1.46-3.72  c0.22-1.27,1.1-2.18,2.47-2.55c1.51-0.4,3.03-0.25,4.46,0.47c0.25,0.13,0.5,0.26,0.77,0.4l0.81-1.23  c-0.01-0.01-0.02-0.01-0.03-0.01C80.94,3.04,79.46,2.63,77.77,2.63z"></path>	<rect x="65.06" y="2.87" class="st0" width="1.61" height="20.11"></rect>	<g>		<path class="st0" d="M101.21,14.75c0.46,3.2,1.97,5.55,4.48,7c3.7,2.13,7.51,2.07,11.13-0.2c2.45-1.53,4.04-4.95,4.09-6.8h-1.66   c-0.82,3.94-3.57,6.58-7.25,6.95c-0.35,0.03-0.7,0.05-1.04,0.05c0,0,0,0,0,0c-1.6,0-2.96-0.39-4.18-1.2   c-1.9-1.26-3.14-3.16-3.78-5.8H101.21z"></path>		<polygon class="st0" points="85.08,2.91 85.08,4.26 99.78,4.26 99.78,2.86   "></polygon>		<g>			<polygon class="st1" points="91.65,22.96 93.31,22.96 93.26,7.7 91.65,7.7    "></polygon>			<g>				<path class="st1" d="M119.26,11.28h1.71c-0.63-3.63-2.37-6.11-5.28-7.56c-3.6-1.79-7.23-1.5-10.6,0.84     c-2.3,1.6-3.83,4.72-3.83,6.71h1.7c1.03-4.33,3.66-6.92,7.25-7.12c2.14-0.12,3.96,0.27,5.41,1.27     C117.59,6.76,118.81,8.73,119.26,11.28z"></path>			</g>		</g>	</g></g></svg>